<svg width="179" height="168" viewBox="0 0 179 168" fill="none" xmlns="http://www.w3.org/2000/svg">
<path d="M176.5 35.5V165.5H46.5V35.5H176.5ZM41.5 34.25V161.965L2.5 122.965V5L41.5 34.25ZM134.167 2.5L171.5 30.5H44.833L7.5 2.5H134.167Z" fill="#EFEFEF" stroke="black" stroke-width="5" stroke-linejoin="round"/>
<path d="M70.4261 115V77.9773H77.0739V109.375H93.4375V115H70.4261ZM110.568 115.563C102.489 115.563 97.2727 109.835 97.2727 101.244C97.2727 92.6023 102.489 86.875 110.568 86.875C118.699 86.875 123.864 92.6023 123.864 101.244C123.864 109.835 118.699 115.563 110.568 115.563ZM110.619 110.347C115.068 110.347 117.267 106.307 117.267 101.193C117.267 96.1307 115.068 92.0398 110.619 92.0398C106.068 92.0398 103.869 96.1307 103.869 101.193C103.869 106.307 106.068 110.347 110.619 110.347ZM141.045 125.994C133.682 125.994 129.028 122.722 128.568 117.506H135.063C135.523 119.909 137.824 121.085 141.148 121.085C145.034 121.085 147.591 119.398 147.591 115.307V109.989H147.284C146.261 112.034 144.063 114.591 139.256 114.591C132.864 114.591 127.801 109.937 127.801 100.886C127.801 91.733 132.864 86.875 139.307 86.875C144.216 86.875 146.261 89.7898 147.284 91.7841H147.591V87.233H154.034V115.46C154.034 122.568 148.563 125.994 141.045 125.994ZM141.045 109.477C145.239 109.477 147.642 106.307 147.642 100.989C147.642 95.7216 145.29 92.1932 141.045 92.1932C136.699 92.1932 134.449 95.9261 134.449 100.989C134.449 106.102 136.75 109.477 141.045 109.477Z" fill="black"/>
</svg>
